# xmcd CD Database Entry
#
# Track frame offsets:
# 150
# 15135
# 30555
# 41882
#
# Disc length: 734 seconds
#
# Revision: 1
# Processed by: cddbd v1.4PL0 Copyright (c) Steve Scherf et al.
# Submitted via: tcd 2.0b
#
DISCID=2202dc04
DTITLE=MR.ORANGE - Time flies
DYEAR=1900
DGENRE=
TTITLE0=Beautiful
TTITLE1=Bitter days
TTITLE2=I go far away
TTITLE3=Stray
EXTD=
EXTT0=
EXTT1=
EXTT2=
EXTT3=
PLAYORDER=
